<?xml version="1.0" encoding="utf-8"?>
<!-- Generator: Adobe Illustrator 21.0.0, SVG Export Plug-In . SVG Version: 6.00 Build 0)  -->
<svg version="1.1" id="Layer_1" xmlns="http://www.w3.org/2000/svg" xmlns:xlink="http://www.w3.org/1999/xlink" x="0px" y="0px"
	 viewBox="0 0 108 108" style="enable-background:new 0 0 108 108;" xml:space="preserve">
<style type="text/css">
	.st0{fill:#91DC5A;}
</style>
<g>
	<path class="st0" d="M107.8,5.5c0-3.1-2-5.5-4.5-5.5H4.5C1.8,0,0,2.1,0,5.5v10.8c0,3.3,2,5.5,4.5,5.5h99c2.7,0,4.5-2.1,4.5-5.5V5.5
		H107.8z"/>
	<path class="st0" d="M107.8,48.7c0-3.3-2-5.5-4.5-5.5H4.5c-2.7,0-4.5,2.1-4.5,5.5v10.8C0,62.8,2,65,4.5,65h99
		c2.7,0,4.5-2.1,4.5-5.5V48.7H107.8z"/>
	<path class="st0" d="M107.8,91.7c0-3.3-2-5.5-4.5-5.5H4.5c-2.7,0-4.5,2.1-4.5,5.5v10.8c0,3.3,2,5.5,4.5,5.5h99
		c2.7,0,4.5-2.1,4.5-5.5V91.7H107.8z"/>
</g>
</svg>
